<?xml version="1.0" standalone="no"?>
<!DOCTYPE svg PUBLIC "-//W3C//DTD SVG 20010904//EN"
 "http://www.w3.org/TR/2001/REC-SVG-20010904/DTD/svg10.dtd">
<svg version="1.0" xmlns="http://www.w3.org/2000/svg"
 width="1126.000000pt" height="1126.000000pt" viewBox="0 0 1126.000000 1126.000000"
 preserveAspectRatio="xMidYMid meet">
<metadata>
Created by potrace 1.16, written by Peter Selinger 2001-2019
</metadata>
  <rect x="0" y="0" width="1126" height="1126" rx="100" ry="100" fill="#000000"/>
<g transform="translate(0.000000,1126.000000) scale(0.100000,-0.100000)"
fill="#FFFFFF" stroke="none">
<path d="M868 10721 c-85 -28 -138 -63 -204 -133 -98 -106 -144 -225 -144
-378 0 -141 48 -275 131 -364 l39 -43 0 -4547 0 -4546 572 0 571 0 63 -60
c170 -164 407 -182 589 -45 75 57 119 112 160 200 40 85 55 154 55 243 -1 319
-273 575 -556 523 -89 -16 -187 -68 -257 -137 l-57 -54 -257 2 -258 3 -3 4203
-2 4203 32 40 31 39 767 0 768 0 65 -147 c36 -82 224 -506 417 -943 193 -437
488 -1103 655 -1480 166 -377 441 -998 610 -1380 169 -382 351 -794 405 -914
l97 -219 -20 -61 c-30 -95 -27 -239 7 -339 32 -96 77 -167 143 -229 311 -289
793 -45 793 400 0 140 -34 248 -111 350 -49 65 -142 135 -208 157 -43 14 -51
21 -69 63 -11 26 -184 418 -385 872 -201 454 -670 1514 -1042 2355 -372 842
-743 1680 -824 1862 l-146 333 -958 0 -957 0 -55 54 c-33 34 -82 68 -129 92
-69 34 -85 37 -174 41 -75 2 -110 -1 -154 -16z m244 -390 c59 -67 64 -159 13
-226 -74 -98 -207 -85 -262 25 -13 24 -23 60 -23 80 0 50 38 120 80 148 29 20
44 23 94 20 55 -4 62 -8 98 -47z m4541 -5605 c68 -28 114 -114 103 -189 -8
-49 -30 -86 -71 -119 -42 -33 -127 -32 -174 1 -101 72 -90 243 19 299 51 25
78 27 123 8z m-3363 -3528 c67 -46 97 -118 80 -192 -31 -139 -192 -181 -275
-72 -48 63 -47 169 2 227 51 61 135 76 193 37z"/>
<path d="M10128 10721 c-72 -24 -140 -67 -198 -125 l-44 -46 -1007 0 c-795 0
-1010 -3 -1016 -12 -4 -7 -58 -128 -119 -268 -60 -140 -303 -698 -538 -1240
l-428 -985 -69 -33 c-75 -35 -159 -110 -203 -181 -76 -120 -105 -294 -72 -435
62 -260 299 -436 536 -396 304 51 489 383 391 700 l-20 65 408 940 c225 517
431 991 457 1053 l49 112 815 0 816 0 32 -33 32 -33 0 -4174 0 -4175 -36 -38
-35 -37 -367 2 -367 3 -3 1777 -2 1777 52 68 c106 140 143 289 114 453 -61
344 -396 527 -690 378 -22 -11 -64 -43 -94 -72 -116 -109 -172 -240 -172 -403
0 -147 46 -275 131 -367 l39 -43 0 -2122 0 -2121 680 0 680 0 59 -59 c63 -63
132 -102 226 -126 74 -19 113 -19 194 0 188 45 333 200 376 404 19 90 19 147
0 233 -19 90 -65 185 -120 246 l-45 50 0 4166 0 4166 47 58 c80 98 133 242
133 362 0 202 -123 405 -295 487 -69 32 -87 37 -173 40 -76 2 -110 -1 -154
-16z m228 -373 c84 -74 87 -196 5 -272 -43 -41 -124 -48 -175 -17 -107 67
-109 237 -2 302 20 12 50 19 83 19 45 0 58 -5 89 -32z m-3392 -2662 c55 -23
90 -78 94 -150 4 -72 -17 -118 -68 -154 -69 -47 -133 -41 -191 17 -84 83 -70
211 30 278 39 26 87 29 135 9z m1962 -2187 c35 -31 64 -95 64 -139 0 -49 -38
-120 -79 -147 -75 -50 -175 -20 -218 67 -13 24 -23 60 -23 80 0 50 38 120 80
148 48 32 137 28 176 -9z m1423 -4308 c100 -71 92 -238 -14 -298 -67 -38 -137
-24 -188 36 -71 85 -52 204 43 269 44 30 112 26 159 -7z"/>
<path d="M8700 9421 c-81 -26 -117 -48 -178 -105 -116 -108 -172 -240 -172
-402 0 -59 6 -120 16 -154 l16 -57 -157 -364 c-87 -200 -243 -562 -347 -804
-105 -242 -237 -548 -294 -680 -56 -132 -422 -980 -812 -1885 l-710 -1645
-544 -3 -543 -2 -239 542 c-132 299 -338 764 -457 1034 l-217 491 19 69 c54
194 0 411 -136 548 -71 72 -143 110 -245 132 -288 60 -562 -191 -564 -516 -1
-219 105 -400 289 -491 l81 -41 397 -896 c218 -493 461 -1043 540 -1222 l143
-325 934 0 933 0 1237 2870 1238 2870 46 16 c208 75 339 272 339 509 0 246
-151 459 -367 516 -70 19 -180 17 -246 -5z m211 -364 c41 -27 79 -98 79 -147
0 -49 -38 -120 -79 -147 -75 -50 -175 -20 -218 67 -13 24 -23 60 -23 80 0 49
38 120 79 147 23 16 49 23 81 23 32 0 58 -7 81 -23z m-5249 -3277 c69 -19 128
-120 114 -193 -18 -87 -71 -138 -151 -145 -63 -5 -110 24 -142 88 -46 89 -16
193 67 237 49 26 60 27 112 13z"/>
<path d="M2210 8389 c-175 -30 -336 -187 -385 -378 -21 -81 -21 -217 0 -295
20 -75 67 -164 117 -220 l38 -44 0 -1777 0 -1776 -45 -55 c-86 -107 -126 -222
-126 -366 0 -156 58 -296 166 -397 129 -120 295 -161 448 -110 79 26 119 51
185 113 107 100 163 235 163 391 0 149 -37 260 -124 367 l-47 58 0 1776 0
1776 41 46 c87 99 130 219 130 367 0 287 -186 506 -451 529 -30 2 -80 0 -110
-5z m144 -369 c140 -68 117 -296 -33 -326 -148 -30 -251 166 -148 283 56 63
112 77 181 43z m-25 -4370 c65 -18 121 -96 121 -167 0 -52 -37 -123 -79 -150
-75 -50 -175 -20 -218 67 -27 52 -29 96 -8 147 21 50 42 72 90 94 47 22 50 22
94 9z"/>
</g>
</svg>
